<svg width="173" height="11" viewBox="0 0 173 11" fill="none" xmlns="http://www.w3.org/2000/svg">
<path d="M2.78965 3.78018L0.289746 0.134766H2.09561L3.79365 2.74248L5.50518 0.134766H7.29756L4.79092 3.78018L7.42559 7.5873H5.6332L3.79365 4.79766L1.96084 7.5873H0.168457L2.78965 3.78018Z" fill="white"/>
<path d="M7.60078 0.134766H9.32578L10.8419 4.35967C11.071 4.96162 11.2237 5.52764 11.3001 6.05771H11.354C11.3944 5.81064 11.4686 5.51191 11.5764 5.16152C11.6842 4.80664 12.2547 3.13105 13.2879 0.134766H14.9994L11.8122 8.57783C11.2327 10.1276 10.2669 10.9025 8.91475 10.9025C8.56436 10.9025 8.22295 10.8644 7.89053 10.788V9.53467C8.12861 9.58857 8.40039 9.61553 8.70586 9.61553C9.46953 9.61553 10.0063 9.17305 10.3163 8.28809L10.5926 7.5873L7.60078 0.134766Z" fill="white"/>
<path d="M23.2808 10.222H21.8051V7.5873H16.6975V10.222H15.2353V6.36094H15.8417C16.3718 5.60176 16.7918 4.68535 17.1018 3.61172C17.4162 2.53359 17.6026 1.37461 17.661 0.134766H22.1892V6.36094H23.2808V10.222ZM20.6326 6.36094V1.34766H19.0289C18.9436 2.27305 18.7639 3.18496 18.4898 4.0834C18.2203 4.98184 17.8901 5.74102 17.4993 6.36094H20.6326Z" fill="white"/>
<path d="M31.2724 3.84756C31.2724 5.06494 30.9602 6.01504 30.3357 6.69785C29.7113 7.38066 28.8421 7.72207 27.728 7.72207C27.0317 7.72207 26.4163 7.56484 25.8817 7.25039C25.3472 6.93594 24.9361 6.48447 24.6486 5.896C24.3611 5.30752 24.2174 4.62471 24.2174 3.84756C24.2174 2.63916 24.5273 1.6958 25.1473 1.01748C25.7672 0.33916 26.6409 0 27.7685 0C28.8466 0 29.7001 0.348144 30.329 1.04443C30.9579 1.73623 31.2724 2.67061 31.2724 3.84756ZM25.848 3.84756C25.848 5.56807 26.4837 6.42832 27.755 6.42832C29.0128 6.42832 29.6417 5.56807 29.6417 3.84756C29.6417 2.14502 29.0083 1.29375 27.7415 1.29375C27.0767 1.29375 26.5938 1.51387 26.2928 1.9541C25.9963 2.39434 25.848 3.02549 25.848 3.84756Z" fill="white"/>
<path d="M36.7708 3.75322V0.134766H38.2465V3.75322L41.117 0.134766H42.7881L39.8569 3.73975L43.0509 7.5873H41.3057L38.2465 3.80713V7.5873H36.7708V3.80713L33.7184 7.5873H31.9799L35.1671 3.73975L32.2427 0.134766H33.9138L36.7708 3.75322Z" fill="white"/>
<path d="M47.4577 7.72207C46.2987 7.72207 45.3913 7.38516 44.7355 6.71133C44.0841 6.03301 43.7584 5.10088 43.7584 3.91494C43.7584 2.69756 44.0616 1.74072 44.6681 1.04443C45.2745 0.348144 46.1078 0 47.168 0C48.1518 0 48.9289 0.29873 49.4994 0.896191C50.0699 1.49365 50.3552 2.31572 50.3552 3.3624V4.21816H45.3891C45.4115 4.94141 45.6069 5.49844 45.9753 5.88926C46.3437 6.27559 46.8625 6.46875 47.5318 6.46875C47.9721 6.46875 48.3809 6.42832 48.7582 6.34746C49.14 6.26211 49.5488 6.12285 49.9846 5.92969V7.2167C49.5982 7.40088 49.2074 7.53115 48.8121 7.60752C48.4168 7.68389 47.9653 7.72207 47.4577 7.72207ZM47.168 1.19941C46.6648 1.19941 46.2605 1.35889 45.9551 1.67783C45.6541 1.99678 45.4744 2.46172 45.416 3.07266H48.7986C48.7896 2.45723 48.6414 1.99229 48.3539 1.67783C48.0664 1.35889 47.6711 1.19941 47.168 1.19941Z" fill="white"/>
<path d="M55.1596 7.72207C54.032 7.72207 53.174 7.39414 52.5855 6.73828C52.0016 6.07793 51.7096 5.13232 51.7096 3.90146C51.7096 2.64814 52.015 1.68457 52.626 1.01074C53.2414 0.336914 54.1286 0 55.2876 0C56.0737 0 56.7812 0.145996 57.4102 0.437988L56.9317 1.71152C56.2624 1.45098 55.7099 1.3207 55.2741 1.3207C53.9849 1.3207 53.3402 2.17647 53.3402 3.88799C53.3402 4.72354 53.4997 5.35244 53.8187 5.77471C54.1421 6.19248 54.6138 6.40137 55.2337 6.40137C55.939 6.40137 56.6061 6.22617 57.235 5.87578V7.25713C56.952 7.42334 56.6487 7.54238 56.3253 7.61426C56.0063 7.68613 55.6178 7.72207 55.1596 7.72207Z" fill="white"/>
<path d="M64.5864 0.134766V1.37461H62.1606V7.5873H60.5704V1.37461H58.1446V0.134766H64.5864Z" fill="white"/>
<path d="M72.4904 2.0417C72.4904 2.92217 71.9761 3.45449 70.9474 3.63867V3.69258C71.5224 3.75996 71.9626 3.94189 72.2681 4.23838C72.5735 4.53486 72.7263 4.91894 72.7263 5.39062C72.7263 6.0959 72.4567 6.63945 71.9177 7.02129C71.3831 7.39863 70.6037 7.5873 69.5795 7.5873H66.0217V0.134766H69.566C71.5156 0.134766 72.4904 0.77041 72.4904 2.0417ZM71.1023 5.29629C71.1023 4.93691 70.9631 4.6831 70.6846 4.53486C70.4061 4.38213 69.9883 4.30576 69.4313 4.30576H67.6052V6.41484H69.4717C70.5588 6.41484 71.1023 6.04199 71.1023 5.29629ZM70.9069 2.17646C70.9069 1.87998 70.7901 1.6666 70.5565 1.53633C70.3274 1.40156 69.9838 1.33418 69.5256 1.33418H67.6052V3.12656H69.2897C69.8198 3.12656 70.2219 3.05918 70.4959 2.92441C70.7699 2.78516 70.9069 2.53584 70.9069 2.17646Z" fill="white"/>
<path d="M77.6183 7.72207C76.4593 7.72207 75.5519 7.38516 74.896 6.71133C74.2446 6.03301 73.9189 5.10088 73.9189 3.91494C73.9189 2.69756 74.2222 1.74072 74.8286 1.04443C75.4351 0.348144 76.2684 0 77.3285 0C78.3123 0 79.0895 0.29873 79.66 0.896191C80.2305 1.49365 80.5157 2.31572 80.5157 3.3624V4.21816H75.5496C75.5721 4.94141 75.7675 5.49844 76.1358 5.88926C76.5042 6.27559 77.023 6.46875 77.6924 6.46875C78.1326 6.46875 78.5414 6.42832 78.9188 6.34746C79.3006 6.26211 79.7094 6.12285 80.1451 5.92969V7.2167C79.7588 7.40088 79.368 7.53115 78.9727 7.60752C78.5773 7.68389 78.1259 7.72207 77.6183 7.72207ZM77.3285 1.19941C76.8254 1.19941 76.4211 1.35889 76.1156 1.67783C75.8147 1.99678 75.635 2.46172 75.5766 3.07266H78.9592C78.9502 2.45723 78.802 1.99229 78.5145 1.67783C78.227 1.35889 77.8316 1.19941 77.3285 1.19941Z" fill="white"/>
<path d="M83.8983 0.134766V3.12656H87.409V0.134766H88.9925V7.5873H87.409V4.37314H83.8983V7.5873H82.3148V0.134766H83.8983Z" fill="white"/>
<path d="M92.8468 0.134766V3.12656H96.3574V0.134766H97.9409V7.5873H96.3574V4.37314H92.8468V7.5873H91.2633V0.134766H92.8468Z" fill="white"/>
<path d="M104.875 7.5873L104.558 6.54961H104.504C104.145 7.00332 103.783 7.31328 103.419 7.47949C103.055 7.64121 102.588 7.72207 102.018 7.72207C101.285 7.72207 100.713 7.52441 100.299 7.1291C99.8905 6.73379 99.6861 6.17451 99.6861 5.45127C99.6861 4.68311 99.9714 4.10361 100.542 3.71279C101.112 3.32197 101.982 3.10859 103.15 3.07266L104.437 3.03223V2.63467C104.437 2.1585 104.324 1.80361 104.1 1.57002C103.88 1.33193 103.536 1.21289 103.069 1.21289C102.687 1.21289 102.321 1.26904 101.97 1.38135C101.62 1.49365 101.283 1.62617 100.96 1.77891L100.448 0.646875C100.852 0.435742 101.294 0.27627 101.775 0.168457C102.256 0.0561523 102.709 0 103.136 0C104.084 0 104.798 0.20664 105.279 0.619921C105.764 1.0332 106.007 1.68232 106.007 2.56729V7.5873H104.875ZM102.516 6.50918C103.091 6.50918 103.552 6.34971 103.898 6.03076C104.248 5.70732 104.423 5.25586 104.423 4.67637V4.02949L103.466 4.06992C102.721 4.09688 102.177 4.22266 101.836 4.44727C101.499 4.66738 101.33 5.00654 101.33 5.46475C101.33 5.79717 101.429 6.05547 101.627 6.23965C101.824 6.41934 102.121 6.50918 102.516 6.50918Z" fill="white"/>
<path d="M108.978 7.5873H107.206L109.281 4.53486C108.778 4.39111 108.383 4.13506 108.096 3.7667C107.808 3.39385 107.664 2.9334 107.664 2.38535C107.664 1.68008 107.916 1.12979 108.419 0.734473C108.922 0.334668 109.609 0.134766 110.481 0.134766H113.877V7.5873H112.287V4.7168H110.784L108.978 7.5873ZM109.207 2.39883C109.207 2.78066 109.351 3.06816 109.639 3.26133C109.931 3.45 110.321 3.54434 110.811 3.54434H112.287V1.33418H110.562C110.13 1.33418 109.796 1.42627 109.558 1.61045C109.324 1.79463 109.207 2.05742 109.207 2.39883Z" fill="white"/>
<path d="M124.544 0.134766V1.37461H121.309V7.5873H119.726V0.134766H124.544Z" fill="white"/>
<path d="M130.642 7.5873L130.325 6.54961H130.271C129.912 7.00332 129.55 7.31328 129.186 7.47949C128.822 7.64121 128.355 7.72207 127.785 7.72207C127.053 7.72207 126.48 7.52441 126.067 7.1291C125.658 6.73379 125.453 6.17451 125.453 5.45127C125.453 4.68311 125.739 4.10361 126.309 3.71279C126.88 3.32197 127.749 3.10859 128.917 3.07266L130.204 3.03223V2.63467C130.204 2.1585 130.092 1.80361 129.867 1.57002C129.647 1.33193 129.303 1.21289 128.836 1.21289C128.454 1.21289 128.088 1.26904 127.738 1.38135C127.387 1.49365 127.05 1.62617 126.727 1.77891L126.215 0.646875C126.619 0.435742 127.062 0.27627 127.542 0.168457C128.023 0.0561523 128.477 0 128.903 0C129.851 0 130.565 0.20664 131.046 0.619921C131.531 1.0332 131.774 1.68232 131.774 2.56729V7.5873H130.642ZM128.283 6.50918C128.858 6.50918 129.319 6.34971 129.665 6.03076C130.015 5.70732 130.19 5.25586 130.19 4.67637V4.02949L129.234 4.06992C128.488 4.09688 127.944 4.22266 127.603 4.44727C127.266 4.66738 127.097 5.00654 127.097 5.46475C127.097 5.79717 127.196 6.05547 127.394 6.23965C127.592 6.41934 127.888 6.50918 128.283 6.50918Z" fill="white"/>
<path d="M140.109 7.5873H138.512V1.37461H136.457C136.331 2.97383 136.16 4.22266 135.945 5.12109C135.734 6.01953 135.455 6.67539 135.109 7.08867C134.768 7.50195 134.323 7.70859 133.775 7.70859C133.429 7.70859 133.139 7.65918 132.906 7.56035V6.32051C133.072 6.3834 133.238 6.41484 133.404 6.41484C133.863 6.41484 134.222 5.90049 134.483 4.87178C134.748 3.83857 134.954 2.25957 135.103 0.134766H140.109V7.5873Z" fill="white"/>
<path d="M145.634 7.72207C144.475 7.72207 143.568 7.38516 142.912 6.71133C142.261 6.03301 141.935 5.10088 141.935 3.91494C141.935 2.69756 142.238 1.74072 142.845 1.04443C143.451 0.348144 144.285 0 145.345 0C146.329 0 147.106 0.29873 147.676 0.896191C148.247 1.49365 148.532 2.31572 148.532 3.3624V4.21816H143.566C143.588 4.94141 143.784 5.49844 144.152 5.88926C144.52 6.27559 145.039 6.46875 145.709 6.46875C146.149 6.46875 146.558 6.42832 146.935 6.34746C147.317 6.26211 147.726 6.12285 148.161 5.92969V7.2167C147.775 7.40088 147.384 7.53115 146.989 7.60752C146.594 7.68389 146.142 7.72207 145.634 7.72207ZM145.345 1.19941C144.842 1.19941 144.437 1.35889 144.132 1.67783C143.831 1.99678 143.651 2.46172 143.593 3.07266H146.975C146.966 2.45723 146.818 1.99229 146.531 1.67783C146.243 1.35889 145.848 1.19941 145.345 1.19941Z" fill="white"/>
<path d="M154.111 7.72207C153.168 7.72207 152.436 7.38291 151.915 6.70459H151.82C151.883 7.3335 151.915 7.71533 151.915 7.8501V10.9025H150.331V0.134766H151.611C151.647 0.274023 151.721 0.606445 151.834 1.13203H151.915C152.409 0.377343 153.15 0 154.138 0C155.068 0 155.791 0.336914 156.308 1.01074C156.829 1.68457 157.09 2.63018 157.09 3.84756C157.09 5.06494 156.825 6.01504 156.294 6.69785C155.769 7.38066 155.041 7.72207 154.111 7.72207ZM153.727 1.29375C153.098 1.29375 152.638 1.47793 152.346 1.84629C152.058 2.21465 151.915 2.80312 151.915 3.61172V3.84756C151.915 4.75498 152.058 5.41309 152.346 5.82188C152.633 6.22617 153.103 6.42832 153.754 6.42832C154.302 6.42832 154.724 6.20371 155.021 5.75449C155.317 5.30527 155.466 4.66514 155.466 3.83408C155.466 2.99854 155.317 2.36738 155.021 1.94062C154.729 1.50937 154.298 1.29375 153.727 1.29375Z" fill="white"/>
<path d="M162.184 7.72207C161.025 7.72207 160.117 7.38516 159.461 6.71133C158.81 6.03301 158.484 5.10088 158.484 3.91494C158.484 2.69756 158.788 1.74072 159.394 1.04443C160 0.348144 160.834 0 161.894 0C162.878 0 163.655 0.29873 164.225 0.896191C164.796 1.49365 165.081 2.31572 165.081 3.3624V4.21816H160.115C160.137 4.94141 160.333 5.49844 160.701 5.88926C161.07 6.27559 161.588 6.46875 162.258 6.46875C162.698 6.46875 163.107 6.42832 163.484 6.34746C163.866 6.26211 164.275 6.12285 164.711 5.92969V7.2167C164.324 7.40088 163.933 7.53115 163.538 7.60752C163.143 7.68389 162.691 7.72207 162.184 7.72207ZM161.894 1.19941C161.391 1.19941 160.987 1.35889 160.681 1.67783C160.38 1.99678 160.2 2.46172 160.142 3.07266H163.525C163.516 2.45723 163.367 1.99229 163.08 1.67783C162.792 1.35889 162.397 1.19941 161.894 1.19941Z" fill="white"/>
<path d="M167.642 7.5873H165.87L167.945 4.53486C167.442 4.39111 167.046 4.13506 166.759 3.7667C166.471 3.39385 166.328 2.9334 166.328 2.38535C166.328 1.68008 166.579 1.12979 167.082 0.734473C167.586 0.334668 168.273 0.134766 169.144 0.134766H172.54V7.5873H170.95V4.7168H169.448L167.642 7.5873ZM167.871 2.39883C167.871 2.78066 168.015 3.06816 168.302 3.26133C168.594 3.45 168.985 3.54434 169.475 3.54434H170.95V1.33418H169.225C168.794 1.33418 168.459 1.42627 168.221 1.61045C167.988 1.79463 167.871 2.05742 167.871 2.39883Z" fill="white"/>
</svg>
